<?xml version="1.0" encoding="utf-8"?>
<!-- Generator: Adobe Illustrator 22.0.1, SVG Export Plug-In . SVG Version: 6.00 Build 0)  -->
<svg version="1.1" id="Layer_1" xmlns="http://www.w3.org/2000/svg" xmlns:xlink="http://www.w3.org/1999/xlink" x="0px" y="0px"
	 viewBox="0 0 650.8 728" style="enable-background:new 0 0 650.8 728;" xml:space="preserve">
<style type="text/css">
	.st0{fill:#F8761F;}
</style>
<path class="st0" d="M625.1,346.1c-15.9-27.4-38.3-49.3-66.2-65.8c-20.9-12.2-42.6-19.9-67-23.2v-86.9
	c24.4-10.4,39.6-33.3,39.6-60.1c0-36.5-29.3-66-65.7-66c-36.5,0-66.3,29.6-66.3,66c0,26.8,14.3,49.7,38.7,60.1v87
	c-19.5,2.8-39.8,8.9-58.3,18.3c-37.8-28.7-161.7-122.8-234.1-177.8c1.7-6.2,3-12.6,3-19.3c0-40.4-32.7-73.2-73.1-73.2
	S2.6,37.9,2.6,78.3c0,40.4,32.7,73.2,73.2,73.2c13.8,0,26.5-4,37.5-10.7l15.3,11.6l210.1,151.4c-11.1,10.2-21.5,21.8-29.7,34.8
	c-16.8,26.5-27,55.7-27,87.6v6.6c0,22.4,4.2,43.5,11.5,63.3c6.4,17.3,15.7,33.1,27.2,47.3l-69.7,69.9c-20.6-7.7-43.9-2.6-59.4,13
	c-10.6,10.6-16.6,25-16.5,40c0,15.1,5.9,29.3,16.6,40c10.6,10.6,25,16.6,40,16.6c15,0,29.4-5.9,40-16.6c10.6-10.6,16.6-25,16.6-40
	c0-5.8-0.9-11.5-2.6-17l72.1-72.1c9.9,6.8,20.6,12.6,32,17.5c22.6,9.8,47.6,15.7,75,15.7h5c30.2,0,58.7-7.1,85.5-21.6
	c28.2-15.3,50.3-36.3,67-63.1c16.8-26.9,26-56.5,26-89.2V435C648.2,402.9,640.7,373.2,625.1,346.1L625.1,346.1z M537.1,497.3
	c-19.6,21.7-42.1,35.1-67.5,35.1h-4.2c-14.5,0-28.7-4-42.6-11.3c-15.7-8-27.6-19.5-37.3-34c-10.1-14.2-15.5-29.8-15.5-46.3v-5
	c0-16.2,3.1-31.6,11-46.1c8.4-15.9,19.7-28.2,34.8-38c14.8-9.7,30.6-14.5,48.2-14.5h1.6c15.9,0,31,3.1,45.3,10.4
	c14.5,7.8,26.4,18.4,35.6,32.4c8.9,14,14.2,29,16,45.5c0.3,3.4,0.4,6.9,0.4,10.2C562.6,457.9,554.1,478.6,537.1,497.3L537.1,497.3z"
	/>
</svg>
